<svg xmlns="http://www.w3.org/2000/svg" viewBox="0 0 1600 1000" role="img" aria-label="Dummy background image">
  <defs>
    <linearGradient id="sky" x1="0" x2="0" y1="0" y2="1">
      <stop offset="0%" stop-color="#dff3ff"/>
      <stop offset="55%" stop-color="#f8fcff"/>
      <stop offset="100%" stop-color="#ffffff"/>
    </linearGradient>
    <radialGradient id="glow" cx="50%" cy="18%" r="38%">
      <stop offset="0%" stop-color="#ffffff" stop-opacity="0.95"/>
      <stop offset="60%" stop-color="#b8e4ff" stop-opacity="0.35"/>
      <stop offset="100%" stop-color="#ffffff" stop-opacity="0"/>
    </radialGradient>
    <linearGradient id="water" x1="0" x2="1" y1="0" y2="1">
      <stop offset="0%" stop-color="#a5d8f7"/>
      <stop offset="100%" stop-color="#79b8eb"/>
    </linearGradient>
  </defs>

  <rect width="1600" height="1000" fill="url(#sky)"/>
  <rect width="1600" height="1000" fill="url(#glow)"/>

  <g opacity="0.28">
    <ellipse cx="800" cy="160" rx="500" ry="140" fill="#ffffff"/>
    <ellipse cx="420" cy="220" rx="210" ry="70" fill="#eef8ff"/>
    <ellipse cx="1180" cy="240" rx="260" ry="84" fill="#edf8ff"/>
  </g>

  <g opacity="0.6">
    <path d="M0 520C190 470 340 470 520 520C700 570 870 570 1030 520C1180 470 1360 470 1600 540V1000H0Z" fill="#eef8ff"/>
    <path d="M0 590C180 560 360 580 520 625C690 672 860 676 1020 620C1180 564 1380 554 1600 604V1000H0Z" fill="#dceefe"/>
    <path d="M0 660C210 632 380 648 560 700C720 748 900 754 1080 696C1240 644 1420 640 1600 682V1000H0Z" fill="url(#water)"/>
  </g>

  <g fill="none" stroke="#ffffff" stroke-opacity="0.42">
    <path d="M210 728C350 705 500 706 642 736C798 769 955 769 1118 731C1263 698 1384 699 1514 721" stroke-width="5"/>
    <path d="M168 790C334 760 510 764 680 808C842 850 1014 851 1180 806C1314 770 1438 769 1536 782" stroke-width="4"/>
    <path d="M120 844C284 820 462 824 636 866C810 909 1010 912 1200 864C1328 832 1432 829 1524 840" stroke-width="3"/>
  </g>

  <text x="50%" y="92%" text-anchor="middle" font-family="Helvetica Neue, Arial, sans-serif" font-size="44" fill="#6fa8d9" fill-opacity="0.6">
    DUMMY IMAGE
  </text>
</svg>
